#!OML:ASF F:\VICON\USERDATA\INSTALL\Justin_Nancy\Justin_Nancy.ASF
:FULLY-SPECIFIED
:DEGREES
19
root 0.999713 17.4584 -34.6401 6.11169 -2.06018 1.33945
lowerback 1.71593 -2.88713 -4.90384
upperback -3.76566 -3.89933 4.48216
thorax -4.24365 -1.69664 7.65542
lowerneck -8.97702 -0.987691 -13.6314
upperneck 18.7786 -0.252384 5.92878
head 7.27154 -0.561046 4.19228
rclavicle -1.96323e-014 -1.27222e-014
rhumerus -34.5324 -2.14461 -81.4637
rradius 27.7903
rwrist 9.16173
rhand -17.0927 11.3918
rfingers 7.12502
rthumb 9.14586 -18.3898
lclavicle -1.96323e-014 -1.27222e-014
lhumerus -38.2164 19.2825 83.6957
lradius 26.5789
lwrist -7.84943
lhand -13.175 31.1025
lfingers 7.12502
lthumb 12.9245 60.6822
rfemur -14.1736 4.87648 20.7394
rtibia 31.3174
rfoot -18.1218 -10.6855
rtoes 0.986383
lfemur -14.5818 -3.29532 -22.5589
ltibia 30.256
lfoot -18.3592 8.3206
ltoes 2.78607
20
root 0.990944 17.4555 -34.6396 6.15933 -1.94445 1.3609
lowerback 2.00595 -3.60937 -5.74612
upperback -4.19829 -4.8914 5.28716
thorax -4.57387 -2.12381 9.08817
lowerneck -8.23524 -0.132397 -14.4871
upperneck 18.7587 0.99469 5.66108
head 7.00939 -0.0532305 4.33756
rclavicle -1.11319e-014 6.36111e-015
rhumerus -35.0099 0.768365 -81.5766
rradius 27.8828
rwrist 8.83155
rhand -17.5765 11.1574
rfingers 7.12502
rthumb 8.67905 -18.6441
lclavicle -1.11319e-014 6.36111e-015
lhumerus -39.6969 21.7123 83.2084
lradius 26.9276
lwrist -7.88784
lhand -13.0596 31.4125
lfingers 7.12502
lthumb 13.0358 60.9851
rfemur -14.2044 5.02003 20.7693
rtibia 31.303
rfoot -18.1026 -10.9547
rtoes 2.01109
lfemur -14.5681 -3.50122 -22.5185
ltibia 30.2857
lfoot -18.4731 8.29329
ltoes 2.37574
21
root 0.985388 17.454 -34.6383 6.28951 -1.63502 1.49249
lowerback 2.15227 -4.007 -6.24802
upperback -4.50308 -5.44498 5.66083
thorax -4.79837 -2.35481 9.83601
lowerneck -7.62592 0.202024 -14.8773
upperneck 18.6373 1.46069 5.39281
head 6.81918 0.119829 4.3363
rclavicle -4.88513e-014 5.40694e-014
rhumerus -35.4657 2.10728 -81.5671
rradius 28.0829
rwrist 8.57617
rhand -16.9511 11.5637
rfingers 7.12502
rthumb 9.28252 -18.2119
lclavicle -4.88513e-014 5.40694e-014
lhumerus -40.4553 22.8004 82.9963
lradius 27.0238
lwrist -8.00529
lhand -13.8861 31.0088
lfingers 7.12502
lthumb 12.239 60.6307
rfemur -14.3185 4.92354 20.6754
rtibia 31.3126
rfoot -18.0692 -11.1945
rtoes 0.750223
lfemur -14.6672 -3.67928 -22.5874
ltibia 30.272
lfoot -18.5558 8.04526
ltoes 2.23483
22
root 0.978984 17.4523 -34.6375 6.2732 -1.63613 1.49769
lowerback 2.2625 -3.97683 -6.31857
upperback -4.54184 -5.41244 5.67455
thorax -4.90289 -2.32798 9.90521
lowerneck -7.35455 0.117268 -14.8057
upperneck 18.6351 1.3175 5.23189
head 6.7897 0.0395979 4.25754
rclavicle 3.37437e-014 4.77083e-015
rhumerus -35.5817 2.12378 -81.5662
rradius 28.1579
rwrist 8.45831
rhand -16.8371 12.0769
rfingers 7.12502
rthumb 9.3925 -17.6938
lclavicle 3.37437e-014 4.77083e-015
lhumerus -40.515 22.8287 82.9794
lradius 26.8461
lwrist -7.90305
lhand -15.4932 29.0227
lfingers 7.12502
lthumb 10.6891 58.7308
rfemur -14.3188 4.91346 20.6925
rtibia 31.3467
rfoot -18.0454 -11.1516
rtoes 1.79415
lfemur -14.6743 -3.64971 -22.5868
ltibia 30.3004
lfoot -18.5717 8.11637
ltoes 1.30195
23
root 0.971573 17.4509 -34.6356 6.22248 -1.85676 1.49825
lowerback 2.3657 -4.02574 -6.58181
upperback -4.56695 -5.49226 5.83332
thorax -4.9362 -2.35191 10.2479
lowerneck -7.05333 0.216534 -14.7936
upperneck 18.4671 1.44581 4.97773
head 6.67477 0.0852967 4.17268
rclavicle -2.82274e-014 -4.77083e-015
rhumerus -35.6284 2.64014 -81.5906
rradius 28.1683
rwrist 8.41221
rhand -16.4932 11.7007
rfingers 7.12502
rthumb 9.72434 -18.0548
lclavicle -2.82274e-014 -4.77083e-015
lhumerus -40.7005 23.114 83.0003
lradius 26.6932
lwrist -7.32578
lhand -17.1236 26.5195
lfingers 7.12502
lthumb 9.11609 56.3025
rfemur -14.2968 4.93057 20.6916
rtibia 31.3638
rfoot -18.0596 -10.9475
rtoes 1.10137
lfemur -14.5743 -3.72899 -22.5997
ltibia 30.3343
lfoot -18.6685 8.41486
ltoes 1.45118
24
root 0.966134 17.452 -34.6297 6.24363 -1.89209 1.26963
lowerback 2.23254 -3.78011 -6.13741
upperback -4.41033 -5.13671 5.67054
thorax -4.81864 -2.20568 9.77665
lowerneck -7.29213 0.0235154 -14.5446
upperneck 18.5576 1.16136 5.12184
head 6.77168 -0.0241345 4.16464
rclavicle 3.88997e-014 -7.95139e-015
rhumerus -35.5136 1.69997 -81.4311
rradius 28.1165
rwrist 8.47479
rhand -16.03 12.0863
rfingers 7.12502
rthumb 10.1712 -17.6479
lclavicle 3.88997e-014 -7.95139e-015
lhumerus -40.209 22.233 83.3348
lradius 26.4883
lwrist -6.56041
lhand -18.1933 24.5876
lfingers 7.12502
lthumb 8.08375 54.413
rfemur -14.2728 5.04588 20.9711
rtibia 31.3278
rfoot -18.0576 -10.9994
rtoes 2.9646
lfemur -14.573 -3.91438 -22.3163
ltibia 30.4
lfoot -18.7334 8.61216
ltoes 1.93774
25
root 0.961905 17.4533 -34.6232 6.30689 -1.87857 1.2102
lowerback 2.00285 -3.43518 -5.48457
upperback -4.17737 -4.64748 5.18292
thorax -4.62367 -2.01084 8.81523
lowerneck -7.89752 -0.32901 -14.1361
upperneck 18.8063 0.648606 5.48897
head 7.00365 -0.215149 4.19367
rclavicle 3.24267e-015 1.59028e-015
rhumerus -35.2758 -0.124299 -81.309
rradius 27.9665
rwrist 8.90841
rhand -15.6866 12.6525
rfingers 7.12502
rthumb 10.5025 -17.0652
lclavicle 3.24267e-015 1.59028e-015
lhumerus -39.3965 20.9478 83.509
lradius 26.2372
lwrist -6.05815
lhand -18.943 23.8113
lfingers 7.12502
lthumb 7.36014 53.6632
rfemur -14.3108 5.08852 21.0557
rtibia 31.3208
rfoot -18.0493 -11.0634
rtoes 1.20482
lfemur -14.6361 -4.06352 -22.2284
ltibia 30.4182
lfoot -18.707 8.72367
ltoes 2.14758
26
root 0.9553 17.4519 -34.6216 6.30939 -1.88472 1.19978
lowerback 1.9594 -3.51142 -5.41566
upperback -4.1138 -4.74604 5.16758
thorax -4.51872 -2.07037 8.7536
lowerneck -7.92018 -0.222616 -14.2048
upperneck 18.8031 0.794076 5.56701
head 6.99 -0.142996 4.24234
rclavicle -1.67228e-014 -1.59028e-015
rhumerus -35.1773 0.118365 -81.4571
rradius 27.9857
rwrist 8.69702
rhand -15.3783 13.0176
rfingers 7.12502
rthumb 10.7998 -16.6848
lclavicle -1.67228e-014 -1.59028e-015
lhumerus -39.2492 21.2783 83.2737
lradius 26.0397
lwrist -6.02479
lhand -18.9994 23.9197
lfingers 7.12502
lthumb 7.30571 53.7736
rfemur -14.2713 5.13487 21.0855
rtibia 31.2765
rfoot -18.0649 -11.0627
rtoes 2.3453
lfemur -14.6172 -3.96738 -22.1947
ltibia 30.4373
lfoot -18.7576 8.63779
ltoes 1.85857
27
root 0.950368 17.4507 -34.6237 6.33498 -1.82782 1.38353
lowerback 2.1006 -3.52179 -5.57941
upperback -4.13591 -4.77433 5.13619
thorax -4.6082 -2.07379 8.82841
lowerneck -8.01404 -0.187742 -14.1893
upperneck 18.9197 0.87171 5.47411
head 7.03814 -0.115906 4.21838
rclavicle 1.85118e-015 0
rhumerus -35.1765 0.292998 -81.4937
rradius 28.0537
rwrist 8.47975
rhand -15.5163 13.1318
rfingers 7.12502
rthumb 10.6668 -16.5774
lclavicle 1.85118e-015 0
lhumerus -39.2822 21.3733 83.2081
lradius 26.0918
lwrist -6.58896
lhand -18.1974 24.0713
lfingers 7.12502
lthumb 8.07979 53.8968
rfemur -14.3061 5.07351 20.9038
rtibia 31.2504
rfoot -18.0565 -11.0793
rtoes 1.15691
lfemur -14.6644 -3.94411 -22.3828
ltibia 30.4477
lfoot -18.7311 8.59799
ltoes 1.87212
28
root 0.940149 17.454 -34.6177 6.38785 -1.75072 1.34936
lowerback 1.8348 -3.0255 -4.92382
upperback -3.7019 -4.08888 4.52498
thorax -4.2084 -1.7936 7.72363
lowerneck -8.96656 -0.809746 -13.5966
upperneck 18.9965 0.00598522 5.81052
head 7.31473 -0.452269 4.17354
rclavicle -3.52346e-014 1.11319e-014
rhumerus -34.6807 -1.88998 -81.492
rradius 27.9934
rwrist 8.84776
rhand -16.0938 13.6193
rfingers 7.12502
rthumb 10.1096 -16.1179
lclavicle -3.52346e-014 1.11319e-014
lhumerus -38.1161 20.4165 82.8717
lradius 26.5495
lwrist -11.1461
lhand -11.9904 30.2668
lfingers 7.12502
lthumb 14.0662 59.7708
rfemur -14.332 5.1618 21.0022
rtibia 31.2183
rfoot -17.9761 -11.2798
rtoes 2.36455
lfemur -14.7998 -3.96485 -22.3033
ltibia 30.4673
lfoot -18.6386 8.63906
ltoes 2.1344
29
root 0.931987 17.4541 -34.6083 6.37539 -1.80835 1.30211
lowerback 1.89966 -3.35707 -4.79487
upperback -4.52256 -4.52098 4.70213
thorax -5.03584 -1.95432 7.90635
lowerneck -5.83482 -0.107411 -14.4063
upperneck 18.2053 0.568708 6.03701
head 6.44556 -0.227949 4.383
rclavicle -1.83876e-015 1.59028e-015
rhumerus -36.5531 -0.525031 -81.6221
rradius 28.3022
rwrist 8.8116
rhand -16.6284 13.132
rfingers 7.12502
rthumb 9.59386 -16.6296
lclavicle -1.83876e-015 1.59028e-015
lhumerus -40.5067 21.1139 81.8879
lradius 27.2306
lwrist -12.4159
lhand -9.72786 32.8751
lfingers 7.12502
lthumb 16.2457 62.2145
rfemur -14.2555 5.32989 21.0834
rtibia 31.1944
rfoot -17.9027 -11.3758
rtoes 1.02319
lfemur -14.8397 -3.90821 -22.2408
ltibia 30.4835
lfoot -18.4818 8.74791
ltoes 2.09446
